<svg width="35" height="35" viewBox="0 0 45 42" fill="none" xmlns="http://www.w3.org/2000/svg">
<path opacity="0.71" d="M4.57305 15.813C4.93305 15.923 5.11308 15.653 5.35308 15.523C5.91308 15.213 6.41306 15.283 6.70306 15.743C6.99306 16.203 6.86306 16.713 6.33306 17.053C5.44306 17.623 4.54312 18.183 3.64312 18.733C3.11312 19.053 2.68305 18.963 2.32305 18.443C1.73305 17.603 1.15307 16.763 0.593071 15.913C0.273071 15.433 0.373144 14.893 0.793144 14.603C1.22314 14.313 1.73306 14.423 2.08306 14.903C2.28306 15.173 2.46305 15.453 2.69305 15.793C2.92305 15.123 3.09306 14.513 3.33306 13.923C6.27306 6.76301 11.5231 2.29299 19.1531 0.96299C29.9631 -0.91701 39.9731 5.823 42.5931 16.283C42.7731 17.013 42.5131 17.553 41.9131 17.643C41.3831 17.723 40.9931 17.413 40.8331 16.733C40.4231 15.023 39.8031 13.403 38.9031 11.893C35.6931 6.49298 30.9731 3.33299 24.7231 2.593C15.7031 1.52299 7.43306 7.05296 4.70306 15.493C4.65306 15.583 4.61305 15.683 4.57305 15.813Z" fill="#212121" fill-opacity="0.74"></path>
<path opacity="0.71" d="M40.823 25.713C40.433 25.953 40.143 26.1429 39.833 26.3129C39.363 26.5729 38.843 26.443 38.583 26.023C38.323 25.593 38.4231 25.083 38.8931 24.783C39.8231 24.183 40.763 23.593 41.713 23.023C42.193 22.733 42.633 22.8429 42.963 23.3029C43.563 24.1529 44.143 25.0129 44.723 25.8829C45.053 26.3729 44.9531 26.8929 44.5131 27.1829C44.0831 27.4629 43.573 27.3529 43.223 26.8829C43.033 26.6329 42.8631 26.363 42.6331 26.033C42.5031 26.463 42.4031 26.8429 42.2831 27.2029C39.5431 35.2629 34.0131 40.203 25.6031 41.583C15.4431 43.253 5.61309 36.853 2.77309 26.983C2.54309 26.193 2.87312 25.603 3.55312 25.583C4.05312 25.573 4.3431 25.8329 4.5331 26.5129C5.2031 28.8629 6.29303 31.0029 7.83303 32.9029C11.103 36.9329 15.3131 39.3529 20.4831 39.9029C29.6731 40.8829 37.993 35.3129 40.6031 26.5029C40.673 26.2629 40.733 26.033 40.823 25.713Z" fill="#212121" fill-opacity="0.74"></path>
<path opacity="0.71" d="M35.8031 13.413C31.6031 11.073 27.403 8.73299 23.213 6.38299C22.763 6.13299 22.3731 6.123 21.9231 6.393C17.9331 8.743 13.933 11.083 9.93297 13.413C9.49297 13.673 9.29309 14.013 9.30309 14.533C9.32309 16.523 9.31298 18.523 9.31298 20.523C9.31298 22.433 9.31298 24.333 9.31298 26.243C9.31298 27.903 10.0631 29.113 11.5231 29.873C15.1231 31.753 18.733 33.6231 22.333 35.5131C22.743 35.7331 23.1231 35.753 23.5331 35.533C27.1231 33.633 30.733 31.743 34.313 29.833C35.733 29.073 36.4231 27.843 36.4231 26.243C36.4331 22.343 36.423 18.443 36.433 14.533C36.443 14.013 36.2531 13.663 35.8031 13.413ZM16.6631 11.583C17.3631 10.973 18.003 10.993 18.853 11.483C22.463 13.583 26.1231 15.583 29.7631 17.613C29.9031 17.693 30.0331 17.773 30.1531 17.843C29.3631 18.673 28.6431 18.453 27.7631 17.953C24.1831 15.893 20.553 13.903 16.943 11.883C16.823 11.813 16.703 11.733 16.583 11.653C16.613 11.623 16.6431 11.603 16.6631 11.583ZM31.0131 21.533C31.0131 21.733 30.843 21.783 30.713 21.853C30.423 22.003 30.1331 22.153 29.7931 22.333C29.7931 21.643 29.8031 21.033 29.7931 20.423C29.7931 20.213 29.8731 20.113 30.0531 20.023C30.3531 19.883 30.6431 19.713 31.0231 19.513C31.0131 20.233 31.0131 20.883 31.0131 21.533ZM21.953 32.993C21.953 33.053 21.9331 33.123 21.9231 33.243C20.7031 32.613 19.523 32.0031 18.343 31.3931C16.393 30.3831 14.453 29.353 12.493 28.353C11.543 27.873 11.103 27.143 11.113 26.063C11.143 23.273 11.123 20.493 11.123 17.613C13.263 18.723 15.3331 19.803 17.4031 20.883C18.7931 21.603 20.173 22.333 21.573 23.053C21.803 23.173 21.973 23.263 21.973 23.583C21.943 26.713 21.953 29.853 21.953 32.993ZM23.243 21.573C23.033 21.683 22.8731 21.683 22.6631 21.573C18.9031 19.613 15.143 17.663 11.383 15.703C11.013 15.513 11.003 14.903 11.363 14.683C12.393 14.073 13.433 13.473 14.463 12.863C14.653 12.753 14.793 12.733 14.993 12.843C18.943 15.053 22.893 17.253 26.843 19.463C26.883 19.483 26.923 19.533 26.993 19.603C25.693 20.273 24.463 20.923 23.243 21.573ZM33.363 28.293C30.283 29.913 27.203 31.543 24.113 33.163C24.023 33.213 23.923 33.253 23.843 33.283C23.703 33.193 23.7631 33.083 23.7631 32.983C23.7631 29.913 23.763 26.843 23.753 23.773C23.753 23.453 23.8431 23.273 24.1431 23.123C25.4131 22.473 26.663 21.803 27.983 21.103C27.983 21.983 27.983 22.753 27.983 23.533C27.983 24.593 28.6031 24.983 29.5331 24.503C30.4131 24.053 31.2731 23.573 32.1531 23.133C32.6331 22.893 32.843 22.523 32.833 21.983C32.813 20.963 32.833 19.933 32.823 18.913C32.823 18.653 32.893 18.493 33.133 18.383C33.623 18.153 34.093 17.893 34.633 17.613C34.633 18.613 34.633 19.543 34.633 20.473C34.633 22.363 34.633 24.253 34.633 26.143C34.633 27.123 34.233 27.843 33.363 28.293ZM34.333 15.723C33.703 16.063 33.0531 16.393 32.4231 16.733C32.2331 16.833 32.0931 16.853 31.9031 16.743C27.8531 14.473 23.793 12.203 19.743 9.94299C19.713 9.92299 19.6931 9.89301 19.6431 9.84301C20.5531 9.31301 21.443 8.803 22.313 8.273C22.523 8.143 22.673 8.16301 22.883 8.28301C26.703 10.423 30.533 12.553 34.363 14.693C34.773 14.923 34.763 15.493 34.333 15.723Z" fill="#212121" fill-opacity="0.74"></path>
</svg>